<svg version="1" xmlns="http://www.w3.org/2000/svg" width="346.667" height="346.667" viewBox="0 0 260.000000 260.000000"><path d="M159.1 22.1c-1.3.5-18.5 17-38.1 36.7-36.5 36.5-37.8 38-36.5 44.1 1.3 6.5 7.6 10.9 14.1 9.6 3.4-.6 8.2-5 40-36.8 39.4-39.5 39.2-39.3 36-47.1-2.4-5.8-9.7-8.9-15.5-6.5zM158.5 84c-2.7 1.1-71.5 70.1-73.2 73.4-4.4 8.3 6 19.7 14.7 16.3 3.9-1.6 73.8-71.7 75-75.2.9-2.8.8-5.4-.5-9.3-1.4-4.6-10.5-7.5-16-5.2zM158.7 147.9c-2.6 1-71.6 70.1-73.3 73.4-.8 1.5-1.3 4-1 5.5.2 1.5.5 3.2.5 3.8.1.7 1.5 2.6 3.3 4.3 2.5 2.5 4 3.1 7.2 3 2.3 0 4.9-.4 5.9-.7 3.1-1.3 71.9-70.6 73.4-74 1.5-3.5 1-8.6-1-11.2-3.3-4.4-9.9-6.2-15-4.1z"/></svg>